<mxfile host="app.diagrams.net" modified="2022-11-14T11:26:43.959Z" agent="5.0 (Windows NT 10.0; Win64; x64) AppleWebKit/537.36 (KHTML, like Gecko) Chrome/103.0.0.0 Safari/537.36" etag="LVSsyUKIq6EjwjYi9Ge_" version="20.5.3" type="github">
  <diagram id="oVOBvF3bKzP_bPSG6vSa" name="第 1 页">
    <mxGraphModel dx="1508" dy="663" grid="0" gridSize="10" guides="1" tooltips="1" connect="1" arrows="1" fold="1" page="1" pageScale="1" pageWidth="3300" pageHeight="4681" math="0" shadow="0">
      <root>
        <mxCell id="0" />
        <mxCell id="1" parent="0" />
        <mxCell id="WDRtM0I_3iInOIIH3iHy-63" value="" style="rounded=0;whiteSpace=wrap;html=1;fillColor=none;" vertex="1" parent="1">
          <mxGeometry x="1090" y="1225" width="620" height="615" as="geometry" />
        </mxCell>
        <mxCell id="WDRtM0I_3iInOIIH3iHy-68" value="" style="rounded=0;whiteSpace=wrap;html=1;fillColor=none;" vertex="1" parent="1">
          <mxGeometry x="250" y="1255" width="200" height="371" as="geometry" />
        </mxCell>
        <mxCell id="WDRtM0I_3iInOIIH3iHy-1" value="进程" style="rounded=0;whiteSpace=wrap;html=1;" vertex="1" parent="1">
          <mxGeometry x="380" y="200" width="60" height="160" as="geometry" />
        </mxCell>
        <mxCell id="WDRtM0I_3iInOIIH3iHy-2" value="" style="shape=flexArrow;endArrow=classic;html=1;rounded=0;endWidth=68;endSize=6;width=63;" edge="1" parent="1">
          <mxGeometry width="50" height="50" relative="1" as="geometry">
            <mxPoint x="540" y="220" as="sourcePoint" />
            <mxPoint x="540" y="350" as="targetPoint" />
          </mxGeometry>
        </mxCell>
        <mxCell id="WDRtM0I_3iInOIIH3iHy-5" value="main线程" style="edgeLabel;html=1;align=center;verticalAlign=middle;resizable=0;points=[];" vertex="1" connectable="0" parent="WDRtM0I_3iInOIIH3iHy-2">
          <mxGeometry x="-0.2923" y="-7" relative="1" as="geometry">
            <mxPoint x="7" y="14" as="offset" />
          </mxGeometry>
        </mxCell>
        <mxCell id="WDRtM0I_3iInOIIH3iHy-3" value="" style="shape=flexArrow;endArrow=classic;html=1;rounded=0;endWidth=68;endSize=6;width=63;" edge="1" parent="1">
          <mxGeometry width="50" height="50" relative="1" as="geometry">
            <mxPoint x="669" y="240" as="sourcePoint" />
            <mxPoint x="669" y="490" as="targetPoint" />
          </mxGeometry>
        </mxCell>
        <mxCell id="WDRtM0I_3iInOIIH3iHy-6" value="子线程" style="edgeLabel;html=1;align=center;verticalAlign=middle;resizable=0;points=[];" vertex="1" connectable="0" parent="1">
          <mxGeometry x="670" y="360" as="geometry" />
        </mxCell>
        <mxCell id="WDRtM0I_3iInOIIH3iHy-7" value="" style="endArrow=classic;html=1;rounded=0;exitX=0.983;exitY=0.16;exitDx=0;exitDy=0;exitPerimeter=0;" edge="1" parent="1" source="WDRtM0I_3iInOIIH3iHy-1">
          <mxGeometry width="50" height="50" relative="1" as="geometry">
            <mxPoint x="750" y="410" as="sourcePoint" />
            <mxPoint x="510" y="226" as="targetPoint" />
          </mxGeometry>
        </mxCell>
        <mxCell id="WDRtM0I_3iInOIIH3iHy-8" value="" style="endArrow=classic;html=1;rounded=0;exitX=0.983;exitY=0.16;exitDx=0;exitDy=0;exitPerimeter=0;" edge="1" parent="1">
          <mxGeometry width="50" height="50" relative="1" as="geometry">
            <mxPoint x="570" y="250.00000000000003" as="sourcePoint" />
            <mxPoint x="640" y="250" as="targetPoint" />
          </mxGeometry>
        </mxCell>
        <mxCell id="WDRtM0I_3iInOIIH3iHy-9" value="" style="shape=flexArrow;endArrow=classic;html=1;rounded=0;endWidth=68;endSize=6;width=63;" edge="1" parent="1">
          <mxGeometry width="50" height="50" relative="1" as="geometry">
            <mxPoint x="780" y="270" as="sourcePoint" />
            <mxPoint x="780" y="440" as="targetPoint" />
          </mxGeometry>
        </mxCell>
        <mxCell id="WDRtM0I_3iInOIIH3iHy-10" value="子线程" style="edgeLabel;html=1;align=center;verticalAlign=middle;resizable=0;points=[];" vertex="1" connectable="0" parent="1">
          <mxGeometry x="780" y="320" as="geometry">
            <mxPoint x="-1" y="29" as="offset" />
          </mxGeometry>
        </mxCell>
        <mxCell id="WDRtM0I_3iInOIIH3iHy-12" value="" style="shape=flexArrow;endArrow=classic;html=1;rounded=0;endWidth=68;endSize=6;width=63;" edge="1" parent="1">
          <mxGeometry width="50" height="50" relative="1" as="geometry">
            <mxPoint x="890" y="320" as="sourcePoint" />
            <mxPoint x="890" y="570" as="targetPoint" />
          </mxGeometry>
        </mxCell>
        <mxCell id="WDRtM0I_3iInOIIH3iHy-13" value="子线程" style="edgeLabel;html=1;align=center;verticalAlign=middle;resizable=0;points=[];" vertex="1" connectable="0" parent="1">
          <mxGeometry x="891" y="440" as="geometry" />
        </mxCell>
        <mxCell id="WDRtM0I_3iInOIIH3iHy-15" value="" style="endArrow=classic;html=1;rounded=0;exitX=0.983;exitY=0.16;exitDx=0;exitDy=0;exitPerimeter=0;" edge="1" parent="1">
          <mxGeometry width="50" height="50" relative="1" as="geometry">
            <mxPoint x="570" y="270" as="sourcePoint" />
            <mxPoint x="750" y="270" as="targetPoint" />
          </mxGeometry>
        </mxCell>
        <mxCell id="WDRtM0I_3iInOIIH3iHy-16" value="" style="endArrow=classic;html=1;rounded=0;exitX=0.983;exitY=0.16;exitDx=0;exitDy=0;exitPerimeter=0;" edge="1" parent="1">
          <mxGeometry width="50" height="50" relative="1" as="geometry">
            <mxPoint x="570" y="319" as="sourcePoint" />
            <mxPoint x="860" y="320" as="targetPoint" />
          </mxGeometry>
        </mxCell>
        <mxCell id="WDRtM0I_3iInOIIH3iHy-17" value="进程" style="rounded=0;whiteSpace=wrap;html=1;" vertex="1" parent="1">
          <mxGeometry x="379.82000000000005" y="580" width="60" height="160" as="geometry" />
        </mxCell>
        <mxCell id="WDRtM0I_3iInOIIH3iHy-20" value="" style="shape=flexArrow;endArrow=classic;html=1;rounded=0;endWidth=68;endSize=6;width=63;" edge="1" parent="1">
          <mxGeometry width="50" height="50" relative="1" as="geometry">
            <mxPoint x="668.82" y="620" as="sourcePoint" />
            <mxPoint x="668.82" y="870" as="targetPoint" />
          </mxGeometry>
        </mxCell>
        <mxCell id="WDRtM0I_3iInOIIH3iHy-21" value="子线程" style="edgeLabel;html=1;align=center;verticalAlign=middle;resizable=0;points=[];" vertex="1" connectable="0" parent="1">
          <mxGeometry x="669.82" y="740" as="geometry" />
        </mxCell>
        <mxCell id="WDRtM0I_3iInOIIH3iHy-24" value="" style="shape=flexArrow;endArrow=classic;html=1;rounded=0;endWidth=68;endSize=6;width=63;" edge="1" parent="1">
          <mxGeometry width="50" height="50" relative="1" as="geometry">
            <mxPoint x="779.82" y="650" as="sourcePoint" />
            <mxPoint x="779.82" y="820" as="targetPoint" />
          </mxGeometry>
        </mxCell>
        <mxCell id="WDRtM0I_3iInOIIH3iHy-25" value="子线程" style="edgeLabel;html=1;align=center;verticalAlign=middle;resizable=0;points=[];" vertex="1" connectable="0" parent="1">
          <mxGeometry x="779.82" y="700" as="geometry">
            <mxPoint x="-1" y="29" as="offset" />
          </mxGeometry>
        </mxCell>
        <mxCell id="WDRtM0I_3iInOIIH3iHy-26" value="" style="shape=flexArrow;endArrow=classic;html=1;rounded=0;endWidth=68;endSize=6;width=63;" edge="1" parent="1">
          <mxGeometry width="50" height="50" relative="1" as="geometry">
            <mxPoint x="889.82" y="700" as="sourcePoint" />
            <mxPoint x="889.82" y="950" as="targetPoint" />
          </mxGeometry>
        </mxCell>
        <mxCell id="WDRtM0I_3iInOIIH3iHy-27" value="子线程" style="edgeLabel;html=1;align=center;verticalAlign=middle;resizable=0;points=[];" vertex="1" connectable="0" parent="1">
          <mxGeometry x="890.82" y="820" as="geometry" />
        </mxCell>
        <mxCell id="WDRtM0I_3iInOIIH3iHy-31" value="进程" style="rounded=0;whiteSpace=wrap;html=1;" vertex="1" parent="1">
          <mxGeometry x="1092" y="185" width="60" height="160" as="geometry" />
        </mxCell>
        <mxCell id="WDRtM0I_3iInOIIH3iHy-32" value="" style="shape=flexArrow;endArrow=classic;html=1;rounded=0;endWidth=68;endSize=6;width=63;" edge="1" parent="1">
          <mxGeometry width="50" height="50" relative="1" as="geometry">
            <mxPoint x="1254" y="210" as="sourcePoint" />
            <mxPoint x="1254" y="549" as="targetPoint" />
          </mxGeometry>
        </mxCell>
        <mxCell id="WDRtM0I_3iInOIIH3iHy-33" value="main线程" style="edgeLabel;html=1;align=center;verticalAlign=middle;resizable=0;points=[];" vertex="1" connectable="0" parent="WDRtM0I_3iInOIIH3iHy-32">
          <mxGeometry x="-0.2923" y="-7" relative="1" as="geometry">
            <mxPoint x="6" y="-99" as="offset" />
          </mxGeometry>
        </mxCell>
        <mxCell id="WDRtM0I_3iInOIIH3iHy-34" value="" style="endArrow=classic;html=1;rounded=0;exitX=0.983;exitY=0.16;exitDx=0;exitDy=0;exitPerimeter=0;" edge="1" parent="1" source="WDRtM0I_3iInOIIH3iHy-31">
          <mxGeometry width="50" height="50" relative="1" as="geometry">
            <mxPoint x="1462" y="395" as="sourcePoint" />
            <mxPoint x="1222" y="211" as="targetPoint" />
          </mxGeometry>
        </mxCell>
        <mxCell id="WDRtM0I_3iInOIIH3iHy-35" value="启动" style="text;html=1;strokeColor=none;fillColor=none;align=center;verticalAlign=middle;whiteSpace=wrap;rounded=0;" vertex="1" parent="1">
          <mxGeometry x="1173" y="189" width="30" height="30" as="geometry" />
        </mxCell>
        <mxCell id="WDRtM0I_3iInOIIH3iHy-40" value="run方法" style="rounded=1;whiteSpace=wrap;html=1;" vertex="1" parent="1">
          <mxGeometry x="1229" y="268" width="51" height="136" as="geometry" />
        </mxCell>
        <mxCell id="WDRtM0I_3iInOIIH3iHy-64" value="" style="rounded=0;whiteSpace=wrap;html=1;fillColor=default;" vertex="1" parent="1">
          <mxGeometry x="1140" y="1264" width="530" height="536" as="geometry" />
        </mxCell>
        <mxCell id="WDRtM0I_3iInOIIH3iHy-69" value="&lt;font style=&quot;font-size: 20px;&quot;&gt;JVM调用底层函数让OS为进程调用系统资源，这里假设该进程一直在内存中&lt;/font&gt;" style="text;html=1;strokeColor=none;fillColor=none;align=center;verticalAlign=middle;whiteSpace=wrap;rounded=0;" vertex="1" parent="1">
          <mxGeometry x="770" y="1239" width="310" height="70" as="geometry" />
        </mxCell>
        <mxCell id="WDRtM0I_3iInOIIH3iHy-70" value="&lt;font style=&quot;font-size: 16px;&quot;&gt;继承Thread的类&lt;/font&gt;" style="rounded=1;whiteSpace=wrap;html=1;" vertex="1" parent="1">
          <mxGeometry x="290" y="1500" width="120" height="40" as="geometry" />
        </mxCell>
        <mxCell id="WDRtM0I_3iInOIIH3iHy-71" value="&lt;font style=&quot;font-size: 21px;&quot;&gt;主类&lt;/font&gt;" style="rounded=1;whiteSpace=wrap;html=1;" vertex="1" parent="1">
          <mxGeometry x="290" y="1400" width="120" height="60" as="geometry" />
        </mxCell>
        <mxCell id="WDRtM0I_3iInOIIH3iHy-74" value="&lt;b&gt;&lt;font style=&quot;font-size: 21px;&quot;&gt;内存&lt;/font&gt;&lt;/b&gt;" style="text;html=1;strokeColor=none;fillColor=none;align=center;verticalAlign=middle;whiteSpace=wrap;rounded=0;" vertex="1" parent="1">
          <mxGeometry x="1100" y="1229" width="60" height="30" as="geometry" />
        </mxCell>
        <mxCell id="WDRtM0I_3iInOIIH3iHy-75" value="&lt;b&gt;&lt;font style=&quot;font-size: 21px;&quot;&gt;Java程序&lt;/font&gt;&lt;/b&gt;" style="text;html=1;strokeColor=none;fillColor=none;align=center;verticalAlign=middle;whiteSpace=wrap;rounded=0;" vertex="1" parent="1">
          <mxGeometry x="260" y="1259" width="100" height="30" as="geometry" />
        </mxCell>
        <mxCell id="WDRtM0I_3iInOIIH3iHy-93" style="edgeStyle=orthogonalEdgeStyle;rounded=0;orthogonalLoop=1;jettySize=auto;html=1;exitX=1;exitY=0.25;exitDx=0;exitDy=0;entryX=0;entryY=0.083;entryDx=0;entryDy=0;entryPerimeter=0;fontSize=20;" edge="1" parent="1" source="WDRtM0I_3iInOIIH3iHy-78" target="WDRtM0I_3iInOIIH3iHy-64">
          <mxGeometry relative="1" as="geometry">
            <Array as="points">
              <mxPoint x="770" y="1390" />
              <mxPoint x="770" y="1308" />
            </Array>
          </mxGeometry>
        </mxCell>
        <mxCell id="WDRtM0I_3iInOIIH3iHy-78" value="" style="rounded=0;whiteSpace=wrap;html=1;fontSize=20;" vertex="1" parent="1">
          <mxGeometry x="580" y="1360" width="120" height="260" as="geometry" />
        </mxCell>
        <mxCell id="WDRtM0I_3iInOIIH3iHy-79" value="" style="endArrow=classic;html=1;rounded=0;fontSize=20;entryX=-0.006;entryY=0.154;entryDx=0;entryDy=0;entryPerimeter=0;" edge="1" parent="1" target="WDRtM0I_3iInOIIH3iHy-78">
          <mxGeometry width="50" height="50" relative="1" as="geometry">
            <mxPoint x="450" y="1327" as="sourcePoint" />
            <mxPoint x="570" y="1390" as="targetPoint" />
            <Array as="points">
              <mxPoint x="560" y="1327" />
              <mxPoint x="560" y="1400" />
            </Array>
          </mxGeometry>
        </mxCell>
        <mxCell id="WDRtM0I_3iInOIIH3iHy-81" value="编译执行" style="text;html=1;strokeColor=none;fillColor=none;align=center;verticalAlign=middle;whiteSpace=wrap;rounded=0;fontSize=20;" vertex="1" parent="1">
          <mxGeometry x="460" y="1290" width="90" height="30" as="geometry" />
        </mxCell>
        <mxCell id="WDRtM0I_3iInOIIH3iHy-85" value="" style="rounded=1;whiteSpace=wrap;html=1;" vertex="1" parent="1">
          <mxGeometry x="1180" y="1340" width="220" height="350" as="geometry" />
        </mxCell>
        <mxCell id="WDRtM0I_3iInOIIH3iHy-86" value="" style="rounded=1;whiteSpace=wrap;html=1;" vertex="1" parent="1">
          <mxGeometry x="1180" y="1700" width="220" height="90" as="geometry" />
        </mxCell>
        <mxCell id="WDRtM0I_3iInOIIH3iHy-88" style="edgeStyle=orthogonalEdgeStyle;rounded=0;orthogonalLoop=1;jettySize=auto;html=1;fontSize=20;entryX=0.855;entryY=0;entryDx=0;entryDy=0;entryPerimeter=0;" edge="1" parent="1" source="WDRtM0I_3iInOIIH3iHy-87" target="WDRtM0I_3iInOIIH3iHy-92">
          <mxGeometry relative="1" as="geometry">
            <Array as="points">
              <mxPoint x="1240" y="1330" />
              <mxPoint x="1290" y="1330" />
            </Array>
          </mxGeometry>
        </mxCell>
        <mxCell id="WDRtM0I_3iInOIIH3iHy-87" value="开始执行" style="ellipse;whiteSpace=wrap;html=1;fontSize=20;" vertex="1" parent="1">
          <mxGeometry x="1180" y="1270" width="120" height="40" as="geometry" />
        </mxCell>
        <mxCell id="WDRtM0I_3iInOIIH3iHy-89" value="" style="endArrow=classic;html=1;rounded=0;fontSize=20;exitX=0;exitY=0.129;exitDx=0;exitDy=0;exitPerimeter=0;" edge="1" parent="1" source="WDRtM0I_3iInOIIH3iHy-91">
          <mxGeometry width="50" height="50" relative="1" as="geometry">
            <mxPoint x="1190" y="1425" as="sourcePoint" />
            <mxPoint x="700" y="1425" as="targetPoint" />
          </mxGeometry>
        </mxCell>
        <mxCell id="WDRtM0I_3iInOIIH3iHy-90" value="&lt;b&gt;&lt;font style=&quot;font-size: 21px;&quot;&gt;主类&lt;/font&gt;&lt;/b&gt;" style="text;html=1;strokeColor=none;fillColor=none;align=center;verticalAlign=middle;whiteSpace=wrap;rounded=0;" vertex="1" parent="1">
          <mxGeometry x="1180" y="1350" width="100" height="30" as="geometry" />
        </mxCell>
        <mxCell id="WDRtM0I_3iInOIIH3iHy-91" value="" style="rounded=1;whiteSpace=wrap;html=1;fontSize=20;" vertex="1" parent="1">
          <mxGeometry x="1200" y="1390" width="180" height="280" as="geometry" />
        </mxCell>
        <mxCell id="WDRtM0I_3iInOIIH3iHy-92" value="&lt;span style=&quot;font-size: 21px;&quot;&gt;&lt;b&gt;main方法&lt;/b&gt;&lt;/span&gt;" style="text;html=1;strokeColor=none;fillColor=none;align=center;verticalAlign=middle;whiteSpace=wrap;rounded=0;" vertex="1" parent="1">
          <mxGeometry x="1204.5" y="1390" width="100" height="30" as="geometry" />
        </mxCell>
        <mxCell id="WDRtM0I_3iInOIIH3iHy-94" value="告知JVM，main方法开始执行" style="text;html=1;strokeColor=none;fillColor=none;align=center;verticalAlign=middle;whiteSpace=wrap;rounded=0;fontSize=20;" vertex="1" parent="1">
          <mxGeometry x="790" y="1390" width="270" height="30" as="geometry" />
        </mxCell>
        <mxCell id="WDRtM0I_3iInOIIH3iHy-95" value="" style="endArrow=classic;html=1;rounded=0;fontSize=20;" edge="1" parent="1">
          <mxGeometry width="50" height="50" relative="1" as="geometry">
            <mxPoint x="700" y="1440" as="sourcePoint" />
            <mxPoint x="1440" y="1440" as="targetPoint" />
          </mxGeometry>
        </mxCell>
        <mxCell id="WDRtM0I_3iInOIIH3iHy-96" value="" style="shape=flexArrow;endArrow=classic;html=1;rounded=0;endWidth=68;endSize=6;width=63;" edge="1" parent="1">
          <mxGeometry width="50" height="50" relative="1" as="geometry">
            <mxPoint x="1470" y="1440" as="sourcePoint" />
            <mxPoint x="1470" y="1570" as="targetPoint" />
          </mxGeometry>
        </mxCell>
        <mxCell id="WDRtM0I_3iInOIIH3iHy-97" value="&lt;font style=&quot;font-size: 14px;&quot;&gt;&lt;b&gt;main线程&lt;/b&gt;&lt;/font&gt;" style="edgeLabel;html=1;align=center;verticalAlign=middle;resizable=0;points=[];" vertex="1" connectable="0" parent="WDRtM0I_3iInOIIH3iHy-96">
          <mxGeometry x="-0.2923" y="-7" relative="1" as="geometry">
            <mxPoint x="7" y="14" as="offset" />
          </mxGeometry>
        </mxCell>
        <mxCell id="WDRtM0I_3iInOIIH3iHy-99" value="JVM调用底层函数创建线程" style="text;html=1;strokeColor=none;fillColor=none;align=center;verticalAlign=middle;whiteSpace=wrap;rounded=0;fontSize=20;" vertex="1" parent="1">
          <mxGeometry x="790" y="1440" width="270" height="30" as="geometry" />
        </mxCell>
        <mxCell id="WDRtM0I_3iInOIIH3iHy-100" value="&lt;font style=&quot;font-size: 21px;&quot;&gt;继承Thread的类a&lt;/font&gt;" style="text;html=1;strokeColor=none;fillColor=none;align=center;verticalAlign=middle;whiteSpace=wrap;rounded=0;fontStyle=1" vertex="1" parent="1">
          <mxGeometry x="1190" y="1700" width="170" height="30" as="geometry" />
        </mxCell>
        <mxCell id="WDRtM0I_3iInOIIH3iHy-101" value="实现的run方法" style="rounded=1;whiteSpace=wrap;html=1;fontSize=21;" vertex="1" parent="1">
          <mxGeometry x="1215" y="1740" width="150" height="40" as="geometry" />
        </mxCell>
        <mxCell id="WDRtM0I_3iInOIIH3iHy-110" style="edgeStyle=orthogonalEdgeStyle;rounded=0;orthogonalLoop=1;jettySize=auto;html=1;exitX=0;exitY=0.75;exitDx=0;exitDy=0;entryX=0.997;entryY=0.354;entryDx=0;entryDy=0;fontSize=21;entryPerimeter=0;" edge="1" parent="1" source="WDRtM0I_3iInOIIH3iHy-102" target="WDRtM0I_3iInOIIH3iHy-107">
          <mxGeometry relative="1" as="geometry">
            <Array as="points">
              <mxPoint x="1160" y="1522" />
              <mxPoint x="1160" y="1502" />
            </Array>
          </mxGeometry>
        </mxCell>
        <mxCell id="WDRtM0I_3iInOIIH3iHy-102" value="&lt;b&gt;a.start()&lt;/b&gt;" style="text;html=1;strokeColor=none;fillColor=none;align=center;verticalAlign=middle;whiteSpace=wrap;rounded=0;fontSize=21;" vertex="1" parent="1">
          <mxGeometry x="1250" y="1500" width="80" height="30" as="geometry" />
        </mxCell>
        <mxCell id="WDRtM0I_3iInOIIH3iHy-103" value="&lt;b&gt;...&lt;/b&gt;" style="text;html=1;strokeColor=none;fillColor=none;align=center;verticalAlign=middle;whiteSpace=wrap;rounded=0;fontSize=21;" vertex="1" parent="1">
          <mxGeometry x="1250" y="1460" width="80" height="30" as="geometry" />
        </mxCell>
        <mxCell id="WDRtM0I_3iInOIIH3iHy-104" value="&lt;b&gt;...&lt;/b&gt;" style="text;html=1;strokeColor=none;fillColor=none;align=center;verticalAlign=middle;whiteSpace=wrap;rounded=0;fontSize=21;" vertex="1" parent="1">
          <mxGeometry x="1250" y="1570" width="80" height="30" as="geometry" />
        </mxCell>
        <mxCell id="WDRtM0I_3iInOIIH3iHy-105" value="&lt;b style=&quot;color: rgb(0, 0, 0); font-family: Helvetica; font-size: 20px; font-style: normal; font-variant-ligatures: normal; font-variant-caps: normal; letter-spacing: normal; orphans: 2; text-align: center; text-indent: 0px; text-transform: none; widows: 2; word-spacing: 0px; -webkit-text-stroke-width: 0px; background-color: rgb(248, 249, 250); text-decoration-thickness: initial; text-decoration-style: initial; text-decoration-color: initial;&quot;&gt;JVM&lt;/b&gt;" style="text;whiteSpace=wrap;html=1;fontSize=21;" vertex="1" parent="1">
          <mxGeometry x="615" y="1370" width="50" height="30" as="geometry" />
        </mxCell>
        <mxCell id="WDRtM0I_3iInOIIH3iHy-112" style="edgeStyle=orthogonalEdgeStyle;rounded=0;orthogonalLoop=1;jettySize=auto;html=1;exitX=1;exitY=0.75;exitDx=0;exitDy=0;fontSize=21;" edge="1" parent="1" source="WDRtM0I_3iInOIIH3iHy-107">
          <mxGeometry relative="1" as="geometry">
            <mxPoint x="1550" y="1490" as="targetPoint" />
          </mxGeometry>
        </mxCell>
        <mxCell id="WDRtM0I_3iInOIIH3iHy-107" value="&lt;b&gt;start0()&lt;/b&gt;" style="rounded=1;whiteSpace=wrap;html=1;fontSize=21;" vertex="1" parent="1">
          <mxGeometry x="590" y="1470" width="100" height="90" as="geometry" />
        </mxCell>
        <mxCell id="WDRtM0I_3iInOIIH3iHy-109" value="&lt;b&gt;a.start()使用JVM中的start0()函数&lt;/b&gt;" style="text;html=1;strokeColor=none;fillColor=none;align=center;verticalAlign=middle;whiteSpace=wrap;rounded=0;fontSize=21;" vertex="1" parent="1">
          <mxGeometry x="740" y="1475" width="330" height="30" as="geometry" />
        </mxCell>
        <mxCell id="WDRtM0I_3iInOIIH3iHy-113" value="" style="shape=flexArrow;endArrow=classic;html=1;rounded=0;endWidth=68;endSize=8.876923076923076;width=78.46153846153845;" edge="1" parent="1">
          <mxGeometry width="50" height="50" relative="1" as="geometry">
            <mxPoint x="1590" y="1480" as="sourcePoint" />
            <mxPoint x="1590" y="1730" as="targetPoint" />
          </mxGeometry>
        </mxCell>
        <mxCell id="WDRtM0I_3iInOIIH3iHy-115" value="&lt;font style=&quot;font-size: 20px;&quot;&gt;子线程&lt;/font&gt;" style="edgeLabel;html=1;align=center;verticalAlign=middle;resizable=0;points=[];fontSize=21;" vertex="1" connectable="0" parent="WDRtM0I_3iInOIIH3iHy-113">
          <mxGeometry x="-0.1266" y="-3" relative="1" as="geometry">
            <mxPoint x="3" as="offset" />
          </mxGeometry>
        </mxCell>
        <mxCell id="WDRtM0I_3iInOIIH3iHy-116" value="&lt;b&gt;JVM调用start0()（&lt;/b&gt;&lt;b&gt;start0()根据不同OS的底层代码实现&lt;/b&gt;&lt;b&gt;）为调用start函数的类a创建线程&lt;/b&gt;" style="text;html=1;strokeColor=none;fillColor=none;align=center;verticalAlign=middle;whiteSpace=wrap;rounded=0;fontSize=21;" vertex="1" parent="1">
          <mxGeometry x="725.82" y="1530" width="344.18" height="100" as="geometry" />
        </mxCell>
        <mxCell id="WDRtM0I_3iInOIIH3iHy-117" value="" style="rounded=0;whiteSpace=wrap;html=1;fillColor=none;" vertex="1" parent="1">
          <mxGeometry x="1088" y="2042" width="620" height="615" as="geometry" />
        </mxCell>
        <mxCell id="WDRtM0I_3iInOIIH3iHy-118" value="" style="rounded=0;whiteSpace=wrap;html=1;fillColor=none;" vertex="1" parent="1">
          <mxGeometry x="248" y="2072" width="200" height="371" as="geometry" />
        </mxCell>
        <mxCell id="WDRtM0I_3iInOIIH3iHy-119" value="" style="rounded=0;whiteSpace=wrap;html=1;fillColor=default;" vertex="1" parent="1">
          <mxGeometry x="1138" y="2081" width="530" height="536" as="geometry" />
        </mxCell>
        <mxCell id="WDRtM0I_3iInOIIH3iHy-120" value="&lt;font style=&quot;font-size: 20px;&quot;&gt;JVM调用底层函数让OS为进程调用系统资源，这里假设该进程一直在内存中&lt;/font&gt;" style="text;html=1;strokeColor=none;fillColor=none;align=center;verticalAlign=middle;whiteSpace=wrap;rounded=0;" vertex="1" parent="1">
          <mxGeometry x="768" y="2056" width="310" height="70" as="geometry" />
        </mxCell>
        <mxCell id="WDRtM0I_3iInOIIH3iHy-121" value="&lt;font style=&quot;font-size: 16px;&quot;&gt;继承Thread的类&lt;/font&gt;" style="rounded=1;whiteSpace=wrap;html=1;" vertex="1" parent="1">
          <mxGeometry x="288" y="2317" width="120" height="40" as="geometry" />
        </mxCell>
        <mxCell id="WDRtM0I_3iInOIIH3iHy-122" value="&lt;font style=&quot;font-size: 21px;&quot;&gt;主类&lt;/font&gt;" style="rounded=1;whiteSpace=wrap;html=1;" vertex="1" parent="1">
          <mxGeometry x="288" y="2217" width="120" height="60" as="geometry" />
        </mxCell>
        <mxCell id="WDRtM0I_3iInOIIH3iHy-123" value="&lt;b&gt;&lt;font style=&quot;font-size: 21px;&quot;&gt;内存&lt;/font&gt;&lt;/b&gt;" style="text;html=1;strokeColor=none;fillColor=none;align=center;verticalAlign=middle;whiteSpace=wrap;rounded=0;" vertex="1" parent="1">
          <mxGeometry x="1098" y="2046" width="60" height="30" as="geometry" />
        </mxCell>
        <mxCell id="WDRtM0I_3iInOIIH3iHy-124" value="&lt;b&gt;&lt;font style=&quot;font-size: 21px;&quot;&gt;Java程序&lt;/font&gt;&lt;/b&gt;" style="text;html=1;strokeColor=none;fillColor=none;align=center;verticalAlign=middle;whiteSpace=wrap;rounded=0;" vertex="1" parent="1">
          <mxGeometry x="258" y="2076" width="100" height="30" as="geometry" />
        </mxCell>
        <mxCell id="WDRtM0I_3iInOIIH3iHy-125" style="edgeStyle=orthogonalEdgeStyle;rounded=0;orthogonalLoop=1;jettySize=auto;html=1;exitX=1;exitY=0.25;exitDx=0;exitDy=0;entryX=0;entryY=0.083;entryDx=0;entryDy=0;entryPerimeter=0;fontSize=20;" edge="1" parent="1" source="WDRtM0I_3iInOIIH3iHy-126" target="WDRtM0I_3iInOIIH3iHy-119">
          <mxGeometry relative="1" as="geometry">
            <Array as="points">
              <mxPoint x="768" y="2207" />
              <mxPoint x="768" y="2125" />
            </Array>
          </mxGeometry>
        </mxCell>
        <mxCell id="WDRtM0I_3iInOIIH3iHy-126" value="" style="rounded=0;whiteSpace=wrap;html=1;fontSize=20;" vertex="1" parent="1">
          <mxGeometry x="578" y="2177" width="120" height="260" as="geometry" />
        </mxCell>
        <mxCell id="WDRtM0I_3iInOIIH3iHy-127" value="" style="endArrow=classic;html=1;rounded=0;fontSize=20;entryX=-0.006;entryY=0.154;entryDx=0;entryDy=0;entryPerimeter=0;" edge="1" parent="1" target="WDRtM0I_3iInOIIH3iHy-126">
          <mxGeometry width="50" height="50" relative="1" as="geometry">
            <mxPoint x="448" y="2144" as="sourcePoint" />
            <mxPoint x="568" y="2207" as="targetPoint" />
            <Array as="points">
              <mxPoint x="558" y="2144" />
              <mxPoint x="558" y="2217" />
            </Array>
          </mxGeometry>
        </mxCell>
        <mxCell id="WDRtM0I_3iInOIIH3iHy-128" value="编译执行" style="text;html=1;strokeColor=none;fillColor=none;align=center;verticalAlign=middle;whiteSpace=wrap;rounded=0;fontSize=20;" vertex="1" parent="1">
          <mxGeometry x="458" y="2107" width="90" height="30" as="geometry" />
        </mxCell>
        <mxCell id="WDRtM0I_3iInOIIH3iHy-129" value="" style="rounded=1;whiteSpace=wrap;html=1;" vertex="1" parent="1">
          <mxGeometry x="1178" y="2157" width="220" height="350" as="geometry" />
        </mxCell>
        <mxCell id="WDRtM0I_3iInOIIH3iHy-130" value="" style="rounded=1;whiteSpace=wrap;html=1;" vertex="1" parent="1">
          <mxGeometry x="1178" y="2517" width="220" height="90" as="geometry" />
        </mxCell>
        <mxCell id="WDRtM0I_3iInOIIH3iHy-131" style="edgeStyle=orthogonalEdgeStyle;rounded=0;orthogonalLoop=1;jettySize=auto;html=1;fontSize=20;entryX=0.855;entryY=0;entryDx=0;entryDy=0;entryPerimeter=0;" edge="1" parent="1" source="WDRtM0I_3iInOIIH3iHy-132" target="WDRtM0I_3iInOIIH3iHy-136">
          <mxGeometry relative="1" as="geometry">
            <Array as="points">
              <mxPoint x="1238" y="2147" />
              <mxPoint x="1288" y="2147" />
            </Array>
          </mxGeometry>
        </mxCell>
        <mxCell id="WDRtM0I_3iInOIIH3iHy-132" value="开始执行" style="ellipse;whiteSpace=wrap;html=1;fontSize=20;" vertex="1" parent="1">
          <mxGeometry x="1178" y="2087" width="120" height="40" as="geometry" />
        </mxCell>
        <mxCell id="WDRtM0I_3iInOIIH3iHy-133" value="" style="endArrow=classic;html=1;rounded=0;fontSize=20;exitX=0;exitY=0.129;exitDx=0;exitDy=0;exitPerimeter=0;" edge="1" parent="1" source="WDRtM0I_3iInOIIH3iHy-135">
          <mxGeometry width="50" height="50" relative="1" as="geometry">
            <mxPoint x="1188" y="2242" as="sourcePoint" />
            <mxPoint x="698" y="2242" as="targetPoint" />
          </mxGeometry>
        </mxCell>
        <mxCell id="WDRtM0I_3iInOIIH3iHy-134" value="&lt;b&gt;&lt;font style=&quot;font-size: 21px;&quot;&gt;主类&lt;/font&gt;&lt;/b&gt;" style="text;html=1;strokeColor=none;fillColor=none;align=center;verticalAlign=middle;whiteSpace=wrap;rounded=0;" vertex="1" parent="1">
          <mxGeometry x="1178" y="2167" width="100" height="30" as="geometry" />
        </mxCell>
        <mxCell id="WDRtM0I_3iInOIIH3iHy-135" value="" style="rounded=1;whiteSpace=wrap;html=1;fontSize=20;" vertex="1" parent="1">
          <mxGeometry x="1198" y="2207" width="180" height="280" as="geometry" />
        </mxCell>
        <mxCell id="WDRtM0I_3iInOIIH3iHy-136" value="&lt;b style=&quot;font-size: 21px;&quot;&gt;main方法&lt;/b&gt;" style="text;html=1;strokeColor=none;fillColor=none;align=center;verticalAlign=middle;whiteSpace=wrap;rounded=0;" vertex="1" parent="1">
          <mxGeometry x="1202.5" y="2207" width="100" height="30" as="geometry" />
        </mxCell>
        <mxCell id="WDRtM0I_3iInOIIH3iHy-137" value="告知JVM，main方法开始执行" style="text;html=1;strokeColor=none;fillColor=none;align=center;verticalAlign=middle;whiteSpace=wrap;rounded=0;fontSize=20;" vertex="1" parent="1">
          <mxGeometry x="788" y="2207" width="270" height="30" as="geometry" />
        </mxCell>
        <mxCell id="WDRtM0I_3iInOIIH3iHy-138" value="" style="endArrow=classic;html=1;rounded=0;fontSize=20;" edge="1" parent="1">
          <mxGeometry width="50" height="50" relative="1" as="geometry">
            <mxPoint x="698" y="2257" as="sourcePoint" />
            <mxPoint x="1466" y="2257" as="targetPoint" />
          </mxGeometry>
        </mxCell>
        <mxCell id="WDRtM0I_3iInOIIH3iHy-139" value="" style="shape=flexArrow;endArrow=classic;html=1;rounded=0;endWidth=108.75;endSize=9.1625;width=135;" edge="1" parent="1">
          <mxGeometry width="50" height="50" relative="1" as="geometry">
            <mxPoint x="1533" y="2257" as="sourcePoint" />
            <mxPoint x="1533" y="2461" as="targetPoint" />
          </mxGeometry>
        </mxCell>
        <mxCell id="WDRtM0I_3iInOIIH3iHy-141" value="JVM调用底层函数创建线程" style="text;html=1;strokeColor=none;fillColor=none;align=center;verticalAlign=middle;whiteSpace=wrap;rounded=0;fontSize=20;" vertex="1" parent="1">
          <mxGeometry x="788" y="2257" width="270" height="30" as="geometry" />
        </mxCell>
        <mxCell id="WDRtM0I_3iInOIIH3iHy-142" value="&lt;font style=&quot;font-size: 21px;&quot;&gt;继承Thread的类a&lt;/font&gt;" style="text;html=1;strokeColor=none;fillColor=none;align=center;verticalAlign=middle;whiteSpace=wrap;rounded=0;fontStyle=1" vertex="1" parent="1">
          <mxGeometry x="1188" y="2517" width="170" height="30" as="geometry" />
        </mxCell>
        <mxCell id="WDRtM0I_3iInOIIH3iHy-143" value="实现的run方法" style="rounded=1;whiteSpace=wrap;html=1;fontSize=21;" vertex="1" parent="1">
          <mxGeometry x="1213" y="2557" width="150" height="40" as="geometry" />
        </mxCell>
        <mxCell id="WDRtM0I_3iInOIIH3iHy-145" value="&lt;b&gt;a.run()&lt;/b&gt;" style="text;html=1;strokeColor=none;fillColor=none;align=center;verticalAlign=middle;whiteSpace=wrap;rounded=0;fontSize=21;" vertex="1" parent="1">
          <mxGeometry x="1248" y="2317" width="80" height="30" as="geometry" />
        </mxCell>
        <mxCell id="WDRtM0I_3iInOIIH3iHy-146" value="&lt;b&gt;...&lt;/b&gt;" style="text;html=1;strokeColor=none;fillColor=none;align=center;verticalAlign=middle;whiteSpace=wrap;rounded=0;fontSize=21;" vertex="1" parent="1">
          <mxGeometry x="1248" y="2277" width="80" height="30" as="geometry" />
        </mxCell>
        <mxCell id="WDRtM0I_3iInOIIH3iHy-147" value="&lt;b&gt;...&lt;/b&gt;" style="text;html=1;strokeColor=none;fillColor=none;align=center;verticalAlign=middle;whiteSpace=wrap;rounded=0;fontSize=21;" vertex="1" parent="1">
          <mxGeometry x="1248" y="2387" width="80" height="30" as="geometry" />
        </mxCell>
        <mxCell id="WDRtM0I_3iInOIIH3iHy-148" value="&lt;b style=&quot;color: rgb(0, 0, 0); font-family: Helvetica; font-size: 20px; font-style: normal; font-variant-ligatures: normal; font-variant-caps: normal; letter-spacing: normal; orphans: 2; text-align: center; text-indent: 0px; text-transform: none; widows: 2; word-spacing: 0px; -webkit-text-stroke-width: 0px; background-color: rgb(248, 249, 250); text-decoration-thickness: initial; text-decoration-style: initial; text-decoration-color: initial;&quot;&gt;JVM&lt;/b&gt;" style="text;whiteSpace=wrap;html=1;fontSize=21;" vertex="1" parent="1">
          <mxGeometry x="613" y="2187" width="50" height="30" as="geometry" />
        </mxCell>
        <mxCell id="WDRtM0I_3iInOIIH3iHy-150" value="&lt;b&gt;start0()&lt;/b&gt;" style="rounded=1;whiteSpace=wrap;html=1;fontSize=21;" vertex="1" parent="1">
          <mxGeometry x="588" y="2287" width="100" height="90" as="geometry" />
        </mxCell>
        <mxCell id="WDRtM0I_3iInOIIH3iHy-156" value="&lt;b style=&quot;font-size: 21px;&quot;&gt;main线程&lt;/b&gt;" style="text;html=1;strokeColor=none;fillColor=none;align=center;verticalAlign=middle;whiteSpace=wrap;rounded=0;" vertex="1" parent="1">
          <mxGeometry x="1481" y="2270" width="100" height="30" as="geometry" />
        </mxCell>
        <mxCell id="WDRtM0I_3iInOIIH3iHy-157" value="&lt;font style=&quot;font-size: 20px;&quot;&gt;&lt;b&gt;执行a.run()语句&lt;/b&gt;&lt;/font&gt;" style="rounded=1;whiteSpace=wrap;html=1;fontSize=16;fillColor=default;" vertex="1" parent="1">
          <mxGeometry x="1474" y="2299" width="120" height="96" as="geometry" />
        </mxCell>
      </root>
    </mxGraphModel>
  </diagram>
</mxfile>
